#!OML:ASF E:\emotionWalksFemale\Project 1\Capture day 1\Session 1\Female1.ASF
:FULLY-SPECIFIED
:DEGREES
274
root 9.29657 20.3698 15.3727 355.163 -86.3369 12.4908
lowerback 6.85936 -3.97257 4.80513
upperback -5.93665 -4.49202 5.87568
thorax -10.1153 -2.35453 4.34967
lowerneck -9.30817 3.57629 0.704399
upperneck 1.80531 4.95062 -7.83396
head 2.46066 2.17212 -2.42858
rclavicle -8.54774e-015 4.77083e-014
rhumerus -60.7971 57.1967 -55.4094
rradius 65.76
rwrist 35.6793
rhand -25.8691 -51.1193
rfingers 7.12502
rthumb 0.672212 278.902
lclavicle -8.54774e-015 4.77083e-014
lhumerus 56.7083 -28.697 8.57784
lradius 106.408
lwrist -19.4514
lhand -18.1703 232.923
lfingers 7.12502
lthumb 8.10594 -156.901
rfemur -17.3761 28.6504 12.8283
rtibia 25.7007
rfoot -33.9969 -36.3524
rtoes 62.4985
lfemur -5.07597 -21.2307 -27.0013
ltibia -5.2181e-015
lfoot 0.608646 39.4659
ltoes 46.0773
275
root 9.30637 20.2204 15.2703 355.931 -85.3033 11.4932
lowerback 7.19762 -3.93931 4.5494
upperback -5.82225 -4.45068 5.74966
thorax -10.1783 -2.3131 4.36863
lowerneck -9.44118 3.16221 0.585047
upperneck 1.70397 4.3958 -7.65486
head 2.4146 1.90168 -2.37528
rclavicle 3.77691e-015 2.38542e-014
rhumerus -65.8117 58.1279 -61.0126
rradius 65.4397
rwrist 36.6492
rhand -25.8937 -50.2898
rfingers 7.12502
rthumb 0.648383 279.731
lclavicle 3.77691e-015 2.38542e-014
lhumerus 56.9305 -27.2735 8.38532
lradius 107.724
lwrist -11.9263
lhand -24.0134 231.595
lfingers 7.12502
lthumb 2.46441 -158.37
rfemur -17.1432 28.9041 12.3931
rtibia 25.7844
rfoot -28.4214 -38.5673
rtoes 59.6081
lfemur -4.79645 -20.8411 -27.5548
ltibia -7.77745e-015
lfoot 4.05319 38.261
ltoes 41.4999
276
root 9.31297 20.0568 15.1717 356.407 -84.3373 10.7046
lowerback 7.55836 -3.87395 4.31839
upperback -5.66576 -4.36259 5.69061
thorax -10.2069 -2.24939 4.43738
lowerneck -9.60004 2.72204 0.112724
upperneck 1.7031 3.84607 -7.28049
head 2.39254 1.63378 -2.19225
rclavicle 5.71257e-014 2.70347e-014
rhumerus -70.6995 58.6932 -66.4591
rradius 65.2718
rwrist 37.1443
rhand -25.857 -49.4759
rfingers 7.12502
rthumb 0.683865 280.545
lclavicle 5.71257e-014 2.70347e-014
lhumerus 56.6795 -25.585 8.72302
lradius 106.482
lwrist -13.547
lhand -20.3396 234.945
lfingers 7.12502
lthumb 6.01193 -154.95
rfemur -16.9243 28.5286 12.0944
rtibia 26.0846
rfoot -22.7347 -39.5779
rtoes 56.2089
lfemur -4.4164 -20.3667 -28.1073
ltibia -1.44119e-014
lfoot 5.07226 37.1231
ltoes 40.4681
277
root 9.32118 19.8915 15.0713 357.426 -83.3248 9.6328
lowerback 7.69441 -3.86097 3.99419
upperback -5.58723 -4.36882 5.75135
thorax -10.1685 -2.22526 4.68867
lowerneck -9.65948 2.34839 -0.274337
upperneck 1.54394 3.36701 -6.99597
head 2.31209 1.4042 -2.0515
rclavicle -1.24439e-013 1.20861e-013
rhumerus -75.2587 59.0409 -71.7054
rradius 65.2185
rwrist 37.3202
rhand -25.5617 -48.825
rfingers 7.12502
rthumb 0.969031 281.197
lclavicle -1.24439e-013 1.20861e-013
lhumerus 56.1877 -24.4729 9.29677
lradius 107.055
lwrist -9.54781
lhand -23.2602 235.194
lfingers 7.12502
lthumb 3.19184 -154.762
rfemur -16.9115 27.9375 11.8534
rtibia 26.3087
rfoot -17.8098 -40.0487
rtoes 52.648
lfemur -4.37691 -19.9688 -28.4301
ltibia -2.99171e-014
lfoot 5.66292 36.0743
ltoes 39.9223
278
root 9.335 19.7269 14.9661 359.514 -82.2116 7.7664
lowerback 7.64941 -3.93267 3.78719
upperback -5.59398 -4.48706 5.82372
thorax -10.121 -2.2658 4.89672
lowerneck -9.70522 1.98929 -0.443708
upperneck 1.26239 2.87785 -6.77708
head 2.19853 1.17266 -1.97166
rclavicle -6.95746e-014 1.27222e-014
rhumerus -79.5524 59.1133 -76.8725
rradius 65.4004
rwrist 37.1445
rhand -24.7056 -48.5377
rfingers 7.12502
rthumb 1.79595 281.49
lclavicle -6.95746e-014 1.27222e-014
lhumerus 55.8372 -23.0518 9.92896
lradius 108.928
lwrist -1.01676
lhand -30.8865 232.895
lfingers 7.12502
lthumb -4.17354 -157.044
rfemur -17.0413 27.5793 11.7223
rtibia 26.3492
rfoot -16.9072 -39.816
rtoes 51.963
lfemur -4.71688 -19.7086 -28.4356
ltibia -6.16232e-015
lfoot 7.87846 34.6952
ltoes 36.4547
279
root 9.35163 19.536 14.8571 362.242 -81.0631 5.15173
lowerback 7.76725 -4.01813 3.87566
upperback -5.60649 -4.57882 5.82939
thorax -10.2085 -2.31331 4.88214
lowerneck -9.6143 1.64595 -0.683573
upperneck 1.08291 2.42156 -6.45527
head 2.09392 0.961421 -1.84392
rclavicle 3.49861e-014 -1.27222e-014
rhumerus -83.2207 58.651 -81.5321
rradius 65.6793
rwrist 36.7841
rhand -23.5383 -47.8569
rfingers 7.12502
rthumb 2.92322 282.183
lclavicle 3.49861e-014 -1.27222e-014
lhumerus 55.3103 -21.894 10.2626
lradius 108.049
lwrist -0.778375
lhand -29.8378 235.55
lfingers 7.12502
lthumb -3.16077 -154.406
rfemur -17.0927 27.3758 11.8386
rtibia 26.2407
rfoot -15.991 -39.9613
rtoes 51.3751
lfemur -4.98884 -19.4596 -28.2875
ltibia 9.83984e-015
lfoot 11.7611 32.5378
ltoes 28.409
280
root 9.36478 19.3204 14.7459 364.711 -80.0078 2.78345
lowerback 7.85676 -3.95464 3.98829
upperback -5.61206 -4.4683 5.86556
thorax -10.2805 -2.26469 4.85108
lowerneck -9.42238 1.2122 -1.15127
upperneck 0.788202 1.8551 -5.98932
head 1.92683 0.702109 -1.63293
rclavicle 1.02871e-014 -5.08889e-014
rhumerus -86.0266 57.7079 -85.1418
rradius 65.8062
rwrist 36.3955
rhand -22.3778 -46.4888
rfingers 7.12502
rthumb 4.04398 283.57
lclavicle 1.02871e-014 -5.08889e-014
lhumerus 55.0091 -20.9856 10.9403
lradius 107.614
lwrist 0.731696
lhand -30.389 237.259
lfingers 7.12502
lthumb -3.69309 -152.689
rfemur -17.1415 27.2536 12.0556
rtibia 26.0357
rfoot -15.821 -39.9379
rtoes 51.2272
lfemur -5.24358 -19.0996 -28.1006
ltibia 2.32578e-014
lfoot 15.673 29.6012
ltoes 16.2966
281
root 9.3745 19.0984 14.6349 366.699 -79.0253 0.905815
lowerback 7.83837 -3.85195 4.03807
upperback -5.56259 -4.32358 5.89944
thorax -10.2226 -2.19727 4.82999
lowerneck -9.2882 0.800822 -1.45671
upperneck 0.380184 1.29765 -5.563
head 1.74313 0.447619 -1.46276
rclavicle 2.83268e-014 -4.29375e-014
rhumerus -87.9966 56.6409 -87.9619
rradius 65.6998
rwrist 36.0549
rhand -21.805 -44.9525
rfingers 7.12502
rthumb 4.59709 285.117
lclavicle 2.83268e-014 -4.29375e-014
lhumerus 54.6388 -19.3517 11.8806
lradius 107.127
lwrist 3.59239
lhand -32.6782 217.141
lfingers 7.12502
lthumb -5.90352 -172.757
rfemur -17.0537 26.7573 12.4345
rtibia 25.7858
rfoot -15.4452 -39.8378
rtoes 50.8644
lfemur -5.46603 -18.6519 -27.8962
ltibia 2.98177e-015
lfoot 17.7617 26.9066
ltoes 7.90029
282
root 9.38407 18.8718 14.5223 368.059 -78.1002 -0.395602
lowerback 7.9027 -3.90083 4.03073
upperback -5.52335 -4.38083 5.97546
thorax -10.2087 -2.22117 4.92899
lowerneck -9.08446 0.482529 -1.99748
upperneck -0.0395948 0.884403 -5.05083
head 1.54887 0.266192 -1.21829
rclavicle -3.67752e-014 -1.90833e-014
rhumerus -89.6343 56.0403 -90.6224
rradius 65.6815
rwrist 35.8217
rhand -21.2983 -43.7599
rfingers 7.12502
rthumb 5.08634 286.321
lclavicle -3.67752e-014 -1.90833e-014
lhumerus 53.6753 -18.1265 12.2304
lradius 105.769
lwrist 1.80098
lhand 1.4495 102.63
lfingers 7.12502
lthumb 26.978 -74.5357
rfemur -16.9272 25.4412 12.9158
rtibia 25.5773
rfoot -10.8666 -40.0955
rtoes 47.5467
lfemur -7.5216 -18.1904 -27.6737
ltibia 3.68741
lfoot 18.5052 22.8455
ltoes -3.07052
283
root 9.39621 18.6377 14.4074 368.863 -77.2449 -1.03605
lowerback 8.11274 -4.04609 3.81248
upperback -5.56867 -4.5702 6.22938
thorax -10.3382 -2.28681 5.38499
lowerneck -9.27039 0.23182 -3.3202
upperneck -0.198555 0.662396 -4.14718
head 1.50918 0.175081 -0.714005
rclavicle -6.09772e-014 5.24792e-014
rhumerus -91.2472 56.1159 -93.227
rradius 66.0366
rwrist 34.2862
rhand -20.0669 -43.9187
rfingers 7.12502
rthumb 6.27524 286.194
lclavicle -6.09772e-014 5.24792e-014
lhumerus 52.0637 -16.9045 12.8392
lradius 104.037
lwrist -1.00219
lhand -22.5505 -71.4155
lfingers 7.12502
lthumb 3.87714 -41.471
rfemur -16.9703 23.9766 13.2533
rtibia 25.427
rfoot -6.12343 -39.5807
rtoes 44.234
lfemur -9.06728 -17.6686 -27.5727
ltibia 6.1029
lfoot 20.0855 18.6345
ltoes -15.0153
284
root 9.41209 18.3935 14.2901 369.841 -76.3627 -1.77559
lowerback 8.21044 -4.09232 3.43375
upperback -5.51628 -4.66343 6.40505
thorax -10.286 -2.29952 5.80764
lowerneck -9.5807 -0.0622516 -4.02876
upperneck -0.377848 0.335386 -3.38536
head 1.49838 0.0306947 -0.367515
rclavicle 4.23411e-014 -1.90833e-014
rhumerus -92.0122 55.7981 -95.1619
rradius 65.5911
rwrist 33.2173
rhand -21.6486 -43.5093
rfingers 7.12502
rthumb 4.74806 286.564
lclavicle 4.23411e-014 -1.90833e-014
lhumerus 51.1683 -15.4425 13.9645
lradius 102.661
lwrist -0.465546
lhand -21.5176 -69.1241
lfingers 7.12502
lthumb 4.87453 -39.2002
rfemur -17.0903 22.6852 13.6395
rtibia 25.3578
rfoot -3.65196 -38.6854
rtoes 42.7284
lfemur -10.3652 -17.162 -27.3868
ltibia 7.84123
lfoot 20.8421 15.6909
ltoes -17.4429
285
root 9.43397 18.1377 14.1689 371.614 -75.2864 -3.2704
lowerback 8.46306 -3.91114 3.4892
upperback -5.70044 -4.39571 6.15313
thorax -10.6844 -2.17172 5.50076
lowerneck -9.21238 -0.615149 -3.43788
upperneck -0.582593 -0.486824 -3.00376
head 1.36866 -0.355047 -0.378659
rclavicle 3.11595e-014 -6.99722e-014
rhumerus -92.3617 53.8361 -96.7412
rradius 65.4087
rwrist 34.1641
rhand -20.2324 -42.9613
rfingers 7.12502
rthumb 6.1155 287.147
lclavicle 3.11595e-014 -6.99722e-014
lhumerus 51.5821 -14.688 14.7757
lradius 101.235
lwrist 0.287502
lhand -20.2815 -66.4174
lfingers 7.12502
lthumb 6.06806 -36.5243
rfemur -17.3384 21.2553 14.3367
rtibia 25.4046
rfoot -1.38207 -37.8706
rtoes 41.0084
lfemur -11.6258 -16.797 -26.8859
ltibia 9.33976
lfoot 21.7944 12.9319
ltoes -16.1267
286
root 9.45697 17.8693 14.0474 372.631 -74.3184 -4.04706
lowerback 8.71054 -3.50686 3.47375
upperback -5.76912 -3.8592 5.60674
thorax -10.9754 -1.9214 4.84539
lowerneck -8.89076 -1.37127 -2.26568
upperneck -0.948743 -1.63212 -2.79262
head 1.18873 -0.907086 -0.548423
rclavicle 5.41688e-014 2.22639e-014
rhumerus -92.0057 50.894 -97.9923
rradius 65.1691
rwrist 33.6809
rhand -19.1724 -42.2278
rfingers 7.12502
rthumb 7.13877 287.913
lclavicle 5.41688e-014 2.22639e-014
lhumerus 52.8594 -13.9518 15.3517
lradius 99.4863
lwrist 0.295547
lhand -20.5108 -64.1943
lfingers 7.12502
lthumb 5.84662 -34.295
rfemur -17.6109 19.2041 14.9915
rtibia 25.554
rfoot 2.38068 -36.358
rtoes 37.8103
lfemur -12.886 -16.3522 -26.6309
ltibia 11.0843
lfoot 22.8683 9.5952
ltoes -16.081
287
root 9.47203 17.5891 13.9292 372.904 -73.7573 -4.21704
lowerback 8.87266 -2.93192 3.20138
upperback -5.64183 -3.15217 4.93647
thorax -10.98 -1.5799 4.13694
lowerneck -8.57825 -2.14894 -0.840147
upperneck -1.60203 -2.8306 -2.76082
head 0.903921 -1.49454 -0.807948
rclavicle -1.69464e-014 -2.54444e-014
rhumerus -90.2318 47.4616 -98.2036
rradius 63.9
rwrist 35.5502
rhand -19.2097 -42.0268
rfingers 7.12502
rthumb 7.10269 288.112
lclavicle -1.69464e-014 -2.54444e-014
lhumerus 54.3065 -13.194 16.0074
lradius 97.9226
lwrist 0.576448
lhand -20.2841 -61.6413
lfingers 7.12502
lthumb 6.06558 -31.7481
rfemur -17.804 16.8278 15.56
rtibia 25.9282
rfoot 6.1293 -34.1464
rtoes 34.4476
lfemur -14.0236 -16.1305 -26.6244
ltibia 13.1265
lfoot 23.4955 6.60909
ltoes -17.6515
288
root 9.49018 17.2941 13.8076 374.158 -73.2243 -5.34282
lowerback 9.12029 -2.61994 3.37568
upperback -5.58389 -2.71521 4.58496
thorax -11.106 -1.39193 3.58867
lowerneck -8.57202 -2.69724 -0.577573
upperneck -2.02139 -3.60065 -2.36691
head 0.762806 -1.86995 -0.747936
rclavicle -1.89342e-014 1.90833e-014
rhumerus -87.8829 44.7821 -98.1294
rradius 62.3395
rwrist 36.9494
rhand -18.6325 -41.1573
rfingers 7.12502
rthumb 7.65985 289.001
lclavicle -1.89342e-014 1.90833e-014
lhumerus 54.4104 -12.3129 17.0077
lradius 96.5202
lwrist 0.770131
lhand -20.0617 -59.229
lfingers 7.12502
lthumb 6.28029 -29.3421
rfemur -18.2377 14.9463 16.4721
rtibia 26.7004
rfoot 8.0959 -32.5756
rtoes 32.6727
lfemur -15.2971 -15.6243 -26.3237
ltibia 15.4946
lfoot 23.4791 4.20696
ltoes -16.0783
